<svg width="24" height="24" viewBox="0 0 24 24" class='doodleBtn'xmlns="http://www.w3.org/2000/svg"><g fill="none" fill-rule="evenodd"><path fill="none" d="M0 0h24v24H0z"></path><path d="M21.00.07l-7.79 7.97a0.85.85 0 0 0-0.21.51v1.83a.6.6 0 0 0 0.59.61h1.77a.85.85 0 0 0 0.52-0.22l0.15-0.15 7.64-7.8s0.29-1.44-0.54-2.27c-.83-0.83-2.13-0.48-2.13-0.48zm-6.91 8.42c-0.12-0.12-0.21-.08-0.21.08v1.22c0 0.17.13.3.29.3h1.1c0.16 0 0.20-0.10.09-0.22l-1.27-1.37z" fill="currentcolor"></path><path d="M4.17 22.51c-1.75-2.05-3.95-5.75-1.10-6.63 2.85-0.88 5.12 7.13 8.17 4.29 3.04-2.84-7.69-9.17-6.37-11.87 1.32-2.69 5.02 1.08 5.02 1.08" stroke="currentcolor" stroke-width="3" stroke-linecap="round" stroke-linejoin="round"></path></g></svg>