<svg xmlns="http://www.w3.org/2000/svg" width="15.411" height="15.411" viewBox="0 0 15.411 15.411">
  <path id="problemDone" d="M15.973,8.268A7.705,7.705,0,1,1,8.268.563,7.7,7.7,0,0,1,15.973,8.268ZM8.475,3.11A4.024,4.024,0,0,0,4.853,5.091a.373.373,0,0,0,.084.505l1.078.817a.373.373,0,0,0,.518-.066c.555-.7.936-1.112,1.78-1.112.635,0,1.42.409,1.42,1.024,0,.465-.384.7-1.011,1.056-.731.41-1.7.92-1.7,2.2v.124a.373.373,0,0,0,.373.373h1.74a.373.373,0,0,0,.373-.373V9.593c0-.884,2.585-.921,2.585-3.314C12.1,4.477,10.226,3.11,8.475,3.11Zm-.207,7.705A1.429,1.429,0,1,0,9.7,12.245,1.431,1.431,0,0,0,8.268,10.816Z" transform="translate(-0.563 -0.563)" fill="#57c8b6"/>
</svg>
