<svg xmlns="http://www.w3.org/2000/svg" xmlns:xlink="http://www.w3.org/1999/xlink" width="35.163" height="35.952" viewBox="0 0 35.163 35.952">
  <defs>
    <filter id="Icon_map-circle" x="0" y="0.789" width="35.163" height="35.163" filterUnits="userSpaceOnUse">
      <feOffset dy="3" input="SourceAlpha"/>
      <feGaussianBlur stdDeviation="3" result="blur"/>
      <feFlood flood-opacity="0.161"/>
      <feComposite operator="in" in2="blur"/>
      <feComposite in="SourceGraphic"/>
    </filter>
    <filter id="Icon_map-circle-2" x="16.434" y="0.905" width="15.035" height="15.034" filterUnits="userSpaceOnUse">
      <feOffset dy="1" input="SourceAlpha"/>
      <feGaussianBlur stdDeviation="1.5" result="blur-2"/>
      <feFlood flood-color="#1227af" flood-opacity="0.851"/>
      <feComposite operator="in" in2="blur-2"/>
      <feComposite in="SourceGraphic"/>
    </filter>
    <filter id="Icon_material-done" x="13.103" y="0" width="21.696" height="20.814" filterUnits="userSpaceOnUse">
      <feOffset dy="3" input="SourceAlpha"/>
      <feGaussianBlur stdDeviation="3" result="blur-3"/>
      <feFlood flood-opacity="0.161"/>
      <feComposite operator="in" in2="blur-3"/>
      <feComposite in="SourceGraphic"/>
    </filter>
  </defs>
  <g id="videoWatchedIcon" transform="translate(-8948.934 -4638.208)">
    <g id="Group_1508" data-name="Group 1508" transform="translate(8957.934 4642.613)">
      <g id="Group_1507" data-name="Group 1507" transform="translate(0 2.384)">
        <g id="Group_1480" data-name="Group 1480" transform="translate(0 0)">
          <g transform="matrix(1, 0, 0, 1, -9, -6.79)" filter="url(#Icon_map-circle)">
            <path id="Icon_map-circle-3" data-name="Icon map-circle" d="M17.883,9.3A8.581,8.581,0,1,1,9.3.72,8.581,8.581,0,0,1,17.883,9.3Z" transform="translate(8.28 6.07)" fill="#57c8b6"/>
          </g>
          <g id="Icon_feather-video" data-name="Icon feather-video" transform="translate(2.644 4.803)">
            <path id="Path_3612" data-name="Path 3612" d="M27.778,10.5,24,13.2l3.778,2.7Z" transform="translate(-15.904 -9.42)" fill="none" stroke="#fff" stroke-linecap="round" stroke-linejoin="round" stroke-width="1"/>
            <path id="Path_3613" data-name="Path 3613" d="M2.58,7.5H8.517A1.08,1.08,0,0,1,9.6,8.58v5.4a1.08,1.08,0,0,1-1.08,1.08H2.58a1.08,1.08,0,0,1-1.08-1.08V8.58A1.08,1.08,0,0,1,2.58,7.5Z" transform="translate(-1.5 -7.5)" fill="none" stroke="#fff" stroke-linecap="round" stroke-linejoin="round" stroke-width="1"/>
          </g>
        </g>
      </g>
      <g id="Group_1490" data-name="Group 1490" transform="translate(11.934)">
        <g id="Group_1497" data-name="Group 1497" transform="translate(0 0)">
          <g transform="matrix(1, 0, 0, 1, -20.93, -4.41)" filter="url(#Icon_map-circle-2)">
            <path id="Icon_map-circle-4" data-name="Icon map-circle" d="M6.755,3.737A3.017,3.017,0,1,1,3.737.72,3.017,3.017,0,0,1,6.755,3.737Z" transform="translate(20.21 3.69)" fill="#243bd2"/>
          </g>
          <g transform="matrix(1, 0, 0, 1, -20.93, -4.41)" filter="url(#Icon_material-done)">
            <path id="Icon_material-done-2" data-name="Icon material-done" d="M6.276,10.626l-.882-.882-.294.294,1.176,1.176L8.8,8.694,8.5,8.4Z" transform="translate(17 -2.4)" fill="#fff"/>
          </g>
        </g>
      </g>
    </g>
  </g>
</svg>
